<svg xmlns="http://www.w3.org/2000/svg" viewBox="0 0 800 450" fill="none">
  <rect width="800" height="450" fill="#0a0f1a"/>

  <!-- Grid lines -->
  <line x1="60" y1="60"  x2="740" y2="60"  stroke="#1a2535" stroke-width="1"/>
  <line x1="60" y1="130" x2="740" y2="130" stroke="#1a2535" stroke-width="1"/>
  <line x1="60" y1="200" x2="740" y2="200" stroke="#1a2535" stroke-width="1"/>
  <line x1="60" y1="270" x2="740" y2="270" stroke="#1a2535" stroke-width="1"/>
  <line x1="60" y1="340" x2="740" y2="340" stroke="#1a2535" stroke-width="1"/>
  <line x1="60" y1="390" x2="740" y2="390" stroke="#1a2535" stroke-width="1"/>

  <!-- Y axis labels -->
  <text x="44" y="64"  text-anchor="end" font-family="monospace" font-size="10" fill="#374151">0.048</text>
  <text x="44" y="134" text-anchor="end" font-family="monospace" font-size="10" fill="#374151">0.042</text>
  <text x="44" y="204" text-anchor="end" font-family="monospace" font-size="10" fill="#374151">0.036</text>
  <text x="44" y="274" text-anchor="end" font-family="monospace" font-size="10" fill="#374151">0.030</text>
  <text x="44" y="344" text-anchor="end" font-family="monospace" font-size="10" fill="#374151">0.024</text>

  <!-- Axes -->
  <line x1="60" y1="50" x2="60"  y2="395" stroke="#1f2937" stroke-width="1"/>
  <line x1="60" y1="390" x2="745" y2="390" stroke="#1f2937" stroke-width="1"/>

  <!-- Candles — each defined as: wick x, wick top, wick bottom, body x, body open, body close, bull/bear -->
  <!-- candle 1 bear -->
  <line x1="90"  y1="210" x2="90"  y2="335" stroke="#ef4444" stroke-width="1.5"/>
  <rect x="82"  y="240" width="16" height="70" fill="#ef4444"/>

  <!-- candle 2 bull -->
  <line x1="130" y1="200" x2="130" y2="330" stroke="#22c55e" stroke-width="1.5"/>
  <rect x="122" y="220" width="16" height="80" fill="#22c55e"/>

  <!-- candle 3 bear -->
  <line x1="170" y1="195" x2="170" y2="310" stroke="#ef4444" stroke-width="1.5"/>
  <rect x="162" y="210" width="16" height="65" fill="#ef4444"/>

  <!-- candle 4 bull -->
  <line x1="210" y1="185" x2="210" y2="295" stroke="#22c55e" stroke-width="1.5"/>
  <rect x="202" y="205" width="16" height="60" fill="#22c55e"/>

  <!-- candle 5 bull -->
  <line x1="250" y1="165" x2="250" y2="280" stroke="#22c55e" stroke-width="1.5"/>
  <rect x="242" y="180" width="16" height="72" fill="#22c55e"/>

  <!-- candle 6 bear -->
  <line x1="290" y1="160" x2="290" y2="275" stroke="#ef4444" stroke-width="1.5"/>
  <rect x="282" y="175" width="16" height="65" fill="#ef4444"/>

  <!-- candle 7 bull -->
  <line x1="330" y1="140" x2="330" y2="255" stroke="#22c55e" stroke-width="1.5"/>
  <rect x="322" y="158" width="16" height="68" fill="#22c55e"/>

  <!-- candle 8 bull -->
  <line x1="370" y1="120" x2="370" y2="230" stroke="#22c55e" stroke-width="1.5"/>
  <rect x="362" y="138" width="16" height="62" fill="#22c55e"/>

  <!-- candle 9 bear -->
  <line x1="410" y1="115" x2="410" y2="230" stroke="#ef4444" stroke-width="1.5"/>
  <rect x="402" y="130" width="16" height="70" fill="#ef4444"/>

  <!-- candle 10 bull -->
  <line x1="450" y1="100" x2="450" y2="210" stroke="#22c55e" stroke-width="1.5"/>
  <rect x="442" y="118" width="16" height="64" fill="#22c55e"/>

  <!-- candle 11 bear -->
  <line x1="490" y1="105" x2="490" y2="220" stroke="#ef4444" stroke-width="1.5"/>
  <rect x="482" y="120" width="16" height="68" fill="#ef4444"/>

  <!-- candle 12 bull -->
  <line x1="530" y1="88"  x2="530" y2="200" stroke="#22c55e" stroke-width="1.5"/>
  <rect x="522" y="105" width="16" height="66" fill="#22c55e"/>

  <!-- candle 13 bull -->
  <line x1="570" y1="72"  x2="570" y2="180" stroke="#22c55e" stroke-width="1.5"/>
  <rect x="562" y="88"  width="16" height="62" fill="#22c55e"/>

  <!-- candle 14 bear -->
  <line x1="610" y1="78"  x2="610" y2="190" stroke="#ef4444" stroke-width="1.5"/>
  <rect x="602" y="95"  width="16" height="70" fill="#ef4444"/>

  <!-- candle 15 bull -->
  <line x1="650" y1="65"  x2="650" y2="175" stroke="#22c55e" stroke-width="1.5"/>
  <rect x="642" y="80"  width="16" height="60" fill="#22c55e"/>

  <!-- candle 16 bull -->
  <line x1="690" y1="58"  x2="690" y2="160" stroke="#22c55e" stroke-width="1.5"/>
  <rect x="682" y="72"  width="16" height="58" fill="#22c55e"/>

  <!-- cryptoX text overlay -->
  <text
    x="400" y="310"
    text-anchor="middle"
    font-family="monospace"
    font-size="72"
    font-weight="bold"
    fill="#0a0f1a"
    opacity="0.55"
  >cryptoX</text>
  <text
    x="400" y="310"
    text-anchor="middle"
    font-family="monospace"
    font-size="72"
    font-weight="bold"
    fill="#4f46e5"
    opacity="0.92"
  >cryptoX</text>
</svg>
